<?xml version="1.0" encoding="UTF-8" standalone="no"?>
<svg
   xmlns:dc="http://purl.org/dc/elements/1.1/"
   xmlns:cc="http://creativecommons.org/ns#"
   xmlns:rdf="http://www.w3.org/1999/02/22-rdf-syntax-ns#"
   xmlns:svg="http://www.w3.org/2000/svg"
   xmlns="http://www.w3.org/2000/svg"
   xmlns:sodipodi="http://sodipodi.sourceforge.net/DTD/sodipodi-0.dtd"
   xmlns:inkscape="http://www.inkscape.org/namespaces/inkscape"
   version="1.1"
   viewBox="0 0 112.50002 154.01853"
   id="svg2"
   width="31.750006mm"
   height="43.467453mm"
   sodipodi:docname="Inkscape-Plugin-Demo.SVG"
   inkscape:version="0.92.3 (2405546, 2018-03-11)">
  <metadata
     id="metadata6">
    <rdf:RDF>
      <cc:Work
         rdf:about="">
        <dc:format>image/svg+xml</dc:format>
        <dc:type
           rdf:resource="http://purl.org/dc/dcmitype/StillImage" />
        <dc:title></dc:title>
      </cc:Work>
    </rdf:RDF>
  </metadata>
  <defs
     id="defs4" />
  <sodipodi:namedview
     id="base"
     pagecolor="#ffffff"
     bordercolor="#666666"
     borderopacity="1.0"
     inkscape:pageopacity="0.0"
     inkscape:pageshadow="2"
     inkscape:document-units="mm"
     inkscape:current-layer="layer2"
     showgrid="false"
     showguides="true"
     inkscape:snap-bbox="true"
     inkscape:bbox-paths="true"
     inkscape:bbox-nodes="true"
     inkscape:snap-page="true"
     inkscape:snap-object-midpoints="true"
     inkscape:zoom="3.1289474"
     inkscape:cx="59.424988"
     inkscape:cy="74.268729"
     inkscape:window-width="1680"
     inkscape:window-height="1023"
     inkscape:window-x="1680"
     inkscape:window-y="0"
     inkscape:window-maximized="1"
     viewbox-x="0"
     fit-margin-left="0.1"
     fit-margin-top="0.1"
     fit-margin-bottom="0.1"
     fit-margin-right="0.1" />
  <g
     inkscape:label="base"
     inkscape:groupmode="layer"
     id="layer1"
     transform="translate(-47.139826,35.695707)"
     style="display:inline">
    <path
       style="display:inline;fill:#bfbfbf;fill-opacity:1;fill-rule:evenodd;stroke:none;stroke-width:0.9000001;stroke-miterlimit:4;stroke-dasharray:none;stroke-opacity:1"
       d="m 102.54958,-35.695384 c -1.442,0.0201 -2.681251,1.02834 -2.994401,2.43606 -0.17479,0.78564 -0.0916,1.90743 0.34616,2.77924 -0.20694,0.25456 -0.42003,0.51114 -0.73356,0.88131 -0.80501,0.95041 -2.03268,2.73226 -1.89921,4.963191 0.11775,1.96722 1.19954,3.18141 1.66299,3.78681 0.11337,0.14813 0.11312,0.15299 0.16578,0.22806 -0.17537,0.30492 -0.51006,1.10299 -1.13515,1.85368 -0.96888,1.16356 -2.28015,2.400901 -3.09447,3.06055 -1.43928,1.165911 -3.61151,2.54785 -5.760751,4.03892 -2.14923,1.491071 -4.30636,3.0432009 -5.87929,5.1873809 l -4.4e-4,4.4e-4 c -1.602461,2.18496 -2.42345,4.808001 -2.32956,7.45166103 0.0498,1.40211997 0.4116,2.85021997 1.102939,4.15874997 -0.214429,0.15431 -0.38295,0.27574 -0.618039,0.44839 -1.24696,0.91575 -2.841481,2.25613 -3.65969,4.4344811 -0.32574,0.86724 -0.529361,1.731569 -0.67215,2.587679 -0.268151,0.15531 -0.535341,0.289821 -0.82161,0.45054 -0.0217,0.0125 -0.0434,0.0246 -0.0649,0.0374 -15.625382,9.272292 -29.099983,25.664133 -29.024083,49.260361 0.0611,19.097633 9.15763,34.065233 20.880081,43.65123 11.934572,9.75953 30.174463,15.58676 50.200954,10.36403 1.29755,-0.31692 2.43023,-0.66958 3.47587,-1.04923 0.25175,-0.0385 0.49783,-0.10775 0.73271,-0.20618 2.08692,-0.87802 4.2262,-1.81312 6.33497,-2.85052 0.77559,-0.44777 2.06157,-1.19978 2.49309,-1.41581 2.96111,-0.41563 3.70925,-0.80447 4.81403,-3.35388 1.76218,0.0344 3.34788,-0.9312 4.03283,-3.15822 1.0226,-0.92845 1.60453,-1.29372 2.08895,-1.76267 3.31763,-3.211667 6.55485,-6.622177 8.89776,-10.952847 0.87069,-1.78267 0.67944,-1.51508 1.30084,-2.68028 2.31955,0.65873 2.63902,-2.52158 2.7285,-4.00657 0.11013,-1.82795 0.99946,-4.05023 1.94186,-6.64195 1.51164,-5.14352 2.84112,-10.84075 2.53228,-17.640447 -1.0568,-23.267874 -14.09985,-39.740815 -30.67334,-48.259656 -0.0992,-0.0885 -0.19292,-0.182501 -0.30451,-0.25812 -0.38499,-0.260931 -0.78131,-0.40683 -1.15661,-0.492201 l -0.1602,-0.0795 C 126.64726,7.5603589 125.2128,3.5217889 123.37467,0.74213793 l -4.4e-4,-4.39e-4 c -1.03098,-1.55893 -2.23756,-2.44639003 -3.07858,-3.25726003 -0.8404,-0.810251 -1.12235,-1.4064 -1.10809,-1.3224 -0.0301,-0.174621 0.0565,-0.648221 0.54589,-1.784951 0.48935,-1.13675 1.33101,-2.82932 1.27257,-5.0847409 -0.0673,-2.592259 -1.27072,-4.332659 -1.60544,-5.099759 -0.13121,-0.300731 -0.109,-0.278801 -0.1095,-0.243101 0.0224,-0.0265 0.0135,-0.0145 0.0799,-0.0919 1.71301,-1.99909 0.32456,-5.0897 -2.30765,-5.13671 -2.03314,-0.0359 -4.15856,0.9569 -5.20026,2.43091 -0.13805,0.195351 -0.22544,0.38658 -0.335,0.57981 0.0425,-0.37956 0.0911,-0.76025 0.14731,-1.221459 0.13997,-1.149791 0.25211,-2.78476 -0.42434,-4.485601 h -4.4e-4 c -0.69495,-1.74694 -1.9226,-2.59996 -2.52196,-3.09962 -0.2473,-0.20617 -0.33062,-0.29297 -0.39771,-0.358631 0.0139,-0.10937 0.0278,-0.24645 0.0924,-0.52912 0.1572,-0.68837 0.59798,-1.97404 -0.0215,-3.6846 -0.12375,-0.3418 -0.30651,-0.65928 -0.53987,-0.93802 -0.2922,-0.34906 -0.72981,-0.98057 -1.53671,-1.66168 -0.8069,-0.68112 -2.0818,-1.3178 -3.4647,-1.43708 -0.10338,-0.009 -0.20718,-0.0126 -0.31095,-0.0112 z"
       id="path831"
       inkscape:connector-curvature="0" />
  </g>
  <g
     inkscape:groupmode="layer"
     id="layer2"
     inkscape:label="cutout"
     transform="translate(-47.139826,35.695707)"
     style="display:inline">
    <path
       style="display:inline;fill:#000000;fill-opacity:1;fill-rule:evenodd;stroke:none;stroke-width:0.9000001;stroke-miterlimit:4;stroke-dasharray:none;stroke-opacity:1"
       d="m 131.93249,104.34666 c -0.3486,-0.0186 -0.73994,0.0687 -1.16769,0.29837 -2.17201,1.16604 0.20566,4.14049 1.99592,3.54851 1.68422,-0.55686 1.05417,-3.74642 -0.82823,-3.84688 z"
       id="path991"
       inkscape:connector-curvature="0" />
    <path
       style="display:inline;fill:#000000;fill-opacity:1;fill-rule:evenodd;stroke:none;stroke-width:0.9000001;stroke-miterlimit:4;stroke-dasharray:none;stroke-opacity:1"
       d="m 124.9981,103.97944 c -0.60429,0.69109 -2.17889,0.43073 -3.10481,0.22227 0.36708,3.1038 -0.52385,6.12786 -0.66518,7.98408 2.65374,-1.1165 5.3145,-2.22591 7.76183,-3.54852 -0.23514,-1.09539 -1.12882,-1.5325 -0.88663,-3.10521 -1.47097,-0.0813 -2.29041,-0.81463 -3.10521,-1.55262 z"
       id="path989"
       inkscape:connector-curvature="0" />
    <path
       style="display:inline;fill:#000000;fill-opacity:1;fill-rule:evenodd;stroke:none;stroke-width:0.9000001;stroke-miterlimit:4;stroke-dasharray:none;stroke-opacity:1"
       d="m 136.07692,101.95333 c -1.03313,-0.009 -2.02496,0.6839 -1.98545,1.80466 0.64827,2.28343 4.68829,1.70913 3.32668,-1.33075 -0.39363,-0.32032 -0.87161,-0.46971 -1.34123,-0.47391 z"
       id="path987"
       inkscape:connector-curvature="0" />
    <path
       style="display:inline;fill:#000000;fill-opacity:1;fill-rule:evenodd;stroke:none;stroke-width:0.9000001;stroke-miterlimit:4;stroke-dasharray:none;stroke-opacity:1"
       d="m 128.58125,100.85369 c -0.9103,-0.005 -1.52233,0.28914 -2.03055,0.68652 -0.48554,3.91097 4.85501,1.50937 2.43964,-0.66558 -0.14279,-0.0135 -0.27905,-0.0203 -0.40909,-0.021 z"
       id="path985"
       inkscape:connector-curvature="0" />
    <path
       style="display:inline;fill:#000000;fill-opacity:1;fill-rule:evenodd;stroke:none;stroke-width:0.9000001;stroke-miterlimit:4;stroke-dasharray:none;stroke-opacity:1"
       d="m 124.77624,99.987613 c -0.54124,0.419557 -1.44559,0.476257 -2.43924,0.443707 -1.22118,3.89807 4.27965,1.90421 2.43924,-0.443707 z"
       id="path983"
       inkscape:connector-curvature="0" />
    <path
       style="display:inline;fill:#000000;fill-opacity:1;fill-rule:evenodd;stroke:none;stroke-width:0.9000001;stroke-miterlimit:4;stroke-dasharray:none;stroke-opacity:1"
       d="m 132.51792,99.092123 c -1.16943,0.0302 -2.18665,1.044367 -1.53126,2.448087 1.22353,1.56363 4.20616,0.25057 2.88295,-1.995917 -0.41305,-0.32498 -0.89407,-0.46402 -1.35169,-0.45217 z"
       id="path981"
       inkscape:connector-curvature="0" />
    <path
       style="display:inline;fill:#000000;fill-opacity:1;fill-rule:evenodd;stroke:none;stroke-width:0.9000001;stroke-miterlimit:4;stroke-dasharray:none;stroke-opacity:1"
       d="m 136.72397,97.343423 c -0.91293,-0.0505 -1.9562,0.95635 -1.52361,2.20087 0.33103,0.952297 1.7992,1.217147 2.6615,0.22145 0.20358,-1.70425 -0.42782,-2.38302 -1.13789,-2.42232 z"
       id="path979"
       inkscape:connector-curvature="0" />
    <path
       style="display:inline;fill:#000000;fill-opacity:1;fill-rule:evenodd;stroke:none;stroke-width:0.9000001;stroke-miterlimit:4;stroke-dasharray:none;stroke-opacity:1"
       d="m 122.337,95.995363 c -0.41106,0.47615 -0.15013,1.62455 -0.22226,2.43963 0.7846,0.27678 2.74946,0.58385 2.6615,-0.66517 -1.18745,-0.21668 -1.14124,-1.66774 -2.43924,-1.77446 z"
       id="path977"
       inkscape:connector-curvature="0" />
    <path
       style="display:inline;fill:#000000;fill-opacity:1;fill-rule:evenodd;stroke:none;stroke-width:0.9000001;stroke-miterlimit:4;stroke-dasharray:none;stroke-opacity:1"
       d="m 128.77572,95.359183 c -2.0407,0.1125 -2.18383,4.31608 0.43648,3.74139 1.07076,-0.23485 1.62765,-2.07236 0.88702,-3.32666 -0.50255,-0.31607 -0.94558,-0.43558 -1.3235,-0.41473 z"
       id="path975"
       inkscape:connector-curvature="0" />
    <path
       style="display:inline;fill:#000000;fill-opacity:1;fill-rule:evenodd;stroke:none;stroke-width:0.9000001;stroke-miterlimit:4;stroke-dasharray:none;stroke-opacity:1"
       d="m 133.19599,94.034473 c -0.38012,-9.4e-4 -0.8223,0.1195 -1.32229,0.40869 -0.5996,1.71022 0.007,3.06082 1.33075,3.10481 2.28337,0.0757 2.04417,-3.50466 -0.009,-3.5135 z"
       id="path973"
       inkscape:connector-curvature="0" />
    <path
       style="display:inline;fill:#000000;fill-opacity:1;fill-rule:evenodd;stroke:none;stroke-width:0.9000001;stroke-miterlimit:4;stroke-dasharray:none;stroke-opacity:1"
       d="m 125.68099,93.119263 c -0.63588,0.0162 -1.2776,0.2521 -1.56993,0.65832 -0.68931,3.05513 3.81329,3.13781 3.10521,0 -0.26915,-0.47146 -0.89941,-0.67464 -1.53528,-0.65832 z"
       id="path971"
       inkscape:connector-curvature="0" />
    <path
       style="display:inline;fill:#000000;fill-opacity:1;fill-rule:evenodd;stroke:none;stroke-width:0.9000001;stroke-miterlimit:4;stroke-dasharray:none;stroke-opacity:1"
       d="m 129.83711,90.598283 c -1.39544,0.0381 -2.08697,1.54526 -1.06862,2.73558 1.13966,1.3323 3.80818,0.30373 2.66148,-2.21778 -0.58433,-0.37991 -1.12772,-0.53049 -1.59286,-0.5178 z"
       id="path969"
       inkscape:connector-curvature="0" />
    <path
       style="display:inline;fill:#000000;fill-opacity:1;fill-rule:evenodd;stroke:none;stroke-width:0.9000001;stroke-miterlimit:4;stroke-dasharray:none;stroke-opacity:1"
       d="m 140.96668,81.801243 c -0.14866,1.7847 -1.07794,3.10815 -3.10482,3.54854 0.7154,3.2158 -0.6529,5.70504 -3.10521,6.43188 0.17739,1.52287 1.83817,1.5627 1.5526,3.54853 2.56021,0.3231 3.59994,2.1667 3.32667,5.322987 4.02358,-3.443617 7.42792,-7.505947 9.75856,-12.641907 -3.46413,-1.19331 -6.48768,-2.82739 -7.76222,-6.21003 z"
       id="path967"
       inkscape:connector-curvature="0" />
    <path
       style="display:inline;fill:#000000;fill-opacity:1;fill-rule:evenodd;stroke:none;stroke-width:0.9000001;stroke-miterlimit:4;stroke-dasharray:none;stroke-opacity:1"
       d="m 131.98966,81.767843 c -1.61655,-0.0264 -2.67301,1.28457 -3.6645,2.02973 0.64445,1.35165 1.08114,2.91054 0.88704,5.10074 2.31627,-0.32017 3.18926,0.80309 4.2137,1.77447 2.00695,-0.7025 3.94335,-3.44438 1.99592,-5.54486 -0.62832,-0.38234 -1.76928,-0.49687 -1.99592,-0.66517 0.0686,-1.20739 0.32477,-1.61311 -0.22145,-2.43964 -0.43876,-0.1719 -0.84174,-0.24918 -1.21479,-0.25527 z"
       id="path965"
       inkscape:connector-curvature="0" />
    <path
       style="display:inline;fill:#000000;fill-opacity:1;fill-rule:evenodd;stroke:none;stroke-width:0.9000001;stroke-miterlimit:4;stroke-dasharray:none;stroke-opacity:1"
       d="m 137.91581,81.165083 c -1.2032,-0.006 -2.59114,0.91656 -2.49359,2.18878 1.19537,0.83189 3.35178,0.29199 3.99184,-1.33075 -0.28855,-0.59636 -0.868,-0.85475 -1.49825,-0.85803 z"
       id="path963"
       inkscape:connector-curvature="0" />
    <path
       style="display:inline;fill:#000000;fill-opacity:1;fill-rule:evenodd;stroke:none;stroke-width:0.9000001;stroke-miterlimit:4;stroke-dasharray:none;stroke-opacity:1"
       d="m 122.01287,80.634793 c -1.96807,0.0203 -3.78461,1.21894 -3.88997,2.71907 -0.0466,0.66117 0.96894,1.89869 1.33075,2.88295 1.03675,2.82145 0.70986,5.47058 2.21777,6.21003 2.00754,-0.42983 2.91152,-0.14406 3.99225,-0.88704 4.00128,-2.75079 0.94487,-9.56672 -1.99592,-10.64597 -0.54055,-0.19832 -1.10381,-0.28473 -1.65488,-0.27904 z"
       id="path961"
       inkscape:connector-curvature="0" />
    <path
       style="display:inline;fill:#000000;fill-opacity:1;fill-rule:evenodd;stroke:none;stroke-width:0.9000001;stroke-miterlimit:4;stroke-dasharray:none;stroke-opacity:1"
       d="m 117.3015,77.707543 c -1.08565,-0.0129 -2.16292,0.29281 -2.94859,0.98891 0.51251,1.11325 1.24515,2.00708 2.21739,2.66149 1.11856,-1.02561 3.83979,-0.44863 4.65781,-1.77446 -0.73551,-1.1575 -2.33987,-1.85713 -3.92661,-1.87594 z"
       id="path959"
       inkscape:connector-curvature="0" />
    <path
       style="display:inline;fill:#000000;fill-opacity:1;fill-rule:evenodd;stroke:none;stroke-width:0.9000001;stroke-miterlimit:4;stroke-dasharray:none;stroke-opacity:1"
       d="m 149.17303,76.034553 c -0.27855,1.58914 -0.62827,3.79033 -3.10523,3.77038 -1.02414,-0.0113 -0.80641,-1.26329 -1.99591,-1.10848 -2.23829,4.87325 3.7367,6.96796 7.54037,7.98449 1.11915,-3.15893 1.33012,-10.2582 -2.43923,-10.64639 z"
       id="path957"
       inkscape:connector-curvature="0" />
    <path
       style="display:inline;fill:#000000;fill-opacity:1;fill-rule:evenodd;stroke:none;stroke-width:0.9000001;stroke-miterlimit:4;stroke-dasharray:none;stroke-opacity:1"
       d="m 127.86011,74.599113 c -2.00724,4.2e-4 -2.13752,3.09959 -3.52719,4.09734 0.49463,1.57535 2.39175,1.74788 3.10482,3.10479 1.16546,-0.31313 1.4153,-1.54191 2.88335,-1.5522 -0.0856,-2.35409 -1.24202,-3.63729 -1.77447,-5.54484 -0.25128,-0.072 -0.47886,-0.10512 -0.68651,-0.10512 z"
       id="path955"
       inkscape:connector-curvature="0" />
    <path
       style="display:inline;fill:#000000;fill-opacity:1;fill-rule:evenodd;stroke:none;stroke-width:0.9000001;stroke-miterlimit:4;stroke-dasharray:none;stroke-opacity:1"
       d="m 123.25786,72.144983 c -1.79614,0.0304 -3.53046,1.73165 -3.13904,4.11181 2.14445,1.92985 5.24138,-0.31923 4.87928,-3.54851 -0.53598,-0.39794 -1.14154,-0.57343 -1.74024,-0.5633 z"
       id="path953"
       inkscape:connector-curvature="0" />
    <path
       style="display:inline;fill:#000000;fill-opacity:1;fill-rule:evenodd;stroke:none;stroke-width:0.9000001;stroke-miterlimit:4;stroke-dasharray:none;stroke-opacity:1"
       d="m 145.3511,70.419643 c -1.59646,-0.0509 -2.96276,1.70716 -3.4974,3.17567 1.70114,1.40413 2.23131,3.97827 5.10115,4.21369 0.0817,-2.33062 0.53782,-4.92805 -0.22187,-6.87519 -0.46987,-0.3439 -0.93488,-0.49993 -1.38188,-0.51417 z"
       id="path951"
       inkscape:connector-curvature="0" />
    <path
       style="display:inline;fill:#000000;fill-opacity:1;fill-rule:evenodd;stroke:none;stroke-width:0.9000001;stroke-miterlimit:4;stroke-dasharray:none;stroke-opacity:1"
       d="m 93.948374,66.498243 c -0.185001,3.8075 0.545749,6.69924 0.44373,10.42374 4.32907,2.36758 13.232756,2.47607 18.186346,0.66557 -0.0724,-4.02062 0.44656,-8.02421 0.66557,-11.08931 -4.82546,2.8892 -14.509466,2.85899 -19.295646,0 z"
       id="path949"
       inkscape:connector-curvature="0" />
    <path
       style="display:inline;fill:#000000;fill-opacity:1;fill-rule:evenodd;stroke:none;stroke-width:0.9000001;stroke-miterlimit:4;stroke-dasharray:none;stroke-opacity:1"
       d="m 135.22734,65.706653 c -0.36449,0.006 -0.74125,0.10725 -1.13587,0.34789 -0.34303,0.3225 -0.19517,1.13559 -0.22186,1.77446 -6.32986,1.66976 -4.87685,11.6243 0.88744,12.86336 1.52845,-1.49796 4.07357,-1.39622 6.43148,-0.66557 0.828,-0.65003 1.30847,-1.6481 1.77407,-2.66109 -2.30543,-1.6132 -4.0054,-4.84541 -1.1089,-7.09746 -0.95611,-1.55719 -2.80595,-2.22071 -4.87888,-2.6611 v -1.33075 c -0.56641,-0.32269 -1.14,-0.57927 -1.74748,-0.56974 z"
       id="path947"
       inkscape:connector-curvature="0" />
    <path
       style="display:inline;fill:#000000;fill-opacity:1;fill-rule:evenodd;stroke:none;stroke-width:0.9000001;stroke-miterlimit:4;stroke-dasharray:none;stroke-opacity:1"
       d="m 142.51927,55.852259 c -1.57007,2.1902 -3.9273,8.27852 -0.22185,9.980824 0.73798,-2.74727 1.56765,-6.550988 0.88743,-9.980824 z"
       id="path945"
       inkscape:connector-curvature="0" />
    <path
       style="display:inline;fill:#000000;fill-opacity:1;fill-rule:evenodd;stroke:none;stroke-width:0.9000001;stroke-miterlimit:4;stroke-dasharray:none;stroke-opacity:1"
       d="m 133.20001,54.706739 c -0.17166,-0.005 -0.3422,0.002 -0.43969,0.0366 -2.73407,0.97402 0.88432,3.10835 1.33115,3.77039 0.7072,1.047009 0.7688,3.164156 1.77447,4.657434 1.23612,1.83571 2.91405,2.57051 4.43516,3.54892 -1.76154,-3.46237 -2.39921,-11.374504 -6.65294,-11.976744 -0.10337,-0.0145 -0.27647,-0.0316 -0.44815,-0.0366 z"
       id="path943"
       inkscape:connector-curvature="0" />
    <path
       style="display:inline;fill:#000000;fill-opacity:1;fill-rule:evenodd;stroke:none;stroke-width:0.9000001;stroke-miterlimit:4;stroke-dasharray:none;stroke-opacity:1"
       d="m 140.09776,48.747155 c -4.19355,-0.058 -2.97705,7.285454 -1.12701,9.544752 1.63869,-1.022378 2.14265,-3.180078 3.54852,-4.435559 -0.56851,-1.870899 -0.54478,-4.334424 -2.21777,-5.101143 -0.0694,-0.005 -0.13718,-0.007 -0.20374,-0.007 z"
       id="path941"
       inkscape:connector-curvature="0" />
    <path
       style="display:inline;fill:#000000;fill-opacity:1;fill-rule:evenodd;stroke:none;stroke-width:0.9000001;stroke-miterlimit:4;stroke-dasharray:none;stroke-opacity:1"
       d="m 120.95029,31.978523 c -0.27927,0.005 -0.55732,0.0505 -0.83107,0.142931 -1.11181,1.171919 0.41292,1.80997 0.22145,3.32668 -4.58943,2.3148 -11.87817,3.23275 -18.62966,3.10521 -5.501866,-0.103751 -11.864267,-0.534251 -15.081547,-3.32667 -0.10737,-1.290371 1.06873,-1.29744 0.66558,-2.883351 -3.26799,-1.58093 -6.91918,3.086571 -6.43188,6.210021 0.129009,0.82681 1.405909,1.6865 1.774459,2.66109 0.109631,0.29027 0.4008,1.58605 0.443321,2.21819 0.3366,4.996681 -0.304631,10.896125 0,14.859283 3.17738,2.377256 7.87497,5.188434 12.6415,6.431876 10.744847,2.8027 22.633527,-1.600845 28.166767,-6.875194 0.75996,-1.14669 -0.13917,-2.90918 -0.22186,-4.65781 -0.0636,-1.34813 0.35791,-3.36667 0.44412,-5.322594 0.0765,-1.74219 -0.31491,-3.432441 -0.22226,-4.657431 0.1897,-2.503321 2.03394,-3.4385 2.21778,-4.879271 0.33346,-2.60928 -2.45722,-6.39883 -5.1567,-6.35296 z"
       id="path939"
       inkscape:connector-curvature="0" />
    <path
       style="display:inline;fill:#000000;fill-opacity:1;fill-rule:evenodd;stroke:none;stroke-width:0.9000001;stroke-miterlimit:4;stroke-dasharray:none;stroke-opacity:1"
       d="m 77.757952,15.709568 c -14.9373,8.863976 -27.572919,24.151925 -27.500793,46.57458 0.05805,18.122015 8.625455,32.164305 19.738561,41.251992 11.206932,9.16451 28.421294,14.72974 47.4616,9.75855 4.37952,-10.97413 1.8117,-27.652567 -5.76631,-33.267897 -14.977746,1.2329 -29.806818,-2.95949 -38.368217,-11.53262 -1.363375,-1.36513 -2.642113,-2.95458 -3.896415,-4.753647 -0.784896,-1.125891 -1.150586,-2.1894 -1.648438,-3.230841 -1.60028,-3.345686 -2.345706,-8.142256 -1.995922,-11.75448 1.08249,-11.187282 8.246002,-17.902782 15.746314,-22.843773 -2.267599,-2.389563 -2.537779,-6.776713 -3.77038,-10.201864 z"
       id="path935"
       inkscape:connector-curvature="0" />
    <path
       style="display:inline;fill:#000000;fill-opacity:1;fill-rule:evenodd;stroke:none;stroke-width:0.9600001;stroke-miterlimit:4;stroke-dasharray:none;stroke-opacity:1"
       d="m 59.15625,3.2597656 c -0.315872,1.4198667 1.344067,0.8625016 0.945312,2.3652344 -0.947605,2.486015 -3.460116,3.446824 -3.3125,5.914062 0.105496,1.760136 2.107957,2.662788 2.128907,4.496094 0.02507,2.208921 -3.791791,6.08748 -5.914063,7.806641 -3.564993,2.887894 -9.403111,5.920841 -11.828125,9.226562 -2.507914,3.419561 -2.648659,8.598126 0.708985,10.88086 -1.906188,2.136986 -5.08268,3.073469 -6.150391,5.916015 -2.237376,5.956855 1.13444,11.230048 3.548828,15.84961 2.118849,4.053814 4.867673,9.097812 8.042969,10.408203 2.340587,0.96576 6.949569,1.119795 9.699219,1.183594 6.351552,0.146665 14.663479,-0.10074 18.689453,-3.548829 1.857706,-2.015945 2.822268,-5.926466 1.419922,-9.226562 2.064736,-3.419561 5.151785,-5.172972 5.441406,-9.462891 0.294901,-4.365615 -1.912642,-11.240635 -4.021484,-14.429687 -1.309475,-1.98 -4.552782,-3.745683 -4.96875,-6.150391 -0.454723,-2.631427 1.969186,-4.852846 1.892578,-7.808593 -0.08715,-3.36671 -3.427564,-5.147569 -0.945313,-8.042969 -5.630357,-0.09947 -2.230022,7.710584 -5.677734,9.46289 -0.52416,-2.381239 -3.339292,-4.65802 -3.548828,-7.570312 -0.20704,-2.873187 0.852544,-4.715813 0,-6.859375 -0.678656,-1.706027 -2.834314,-2.243918 -3.3125,-4.0234376 -0.390315,-1.4520673 0.69637,-2.987453 0.236328,-4.2578125 C 61.439845,4.444178 60.753754,3.3973656 59.15625,3.2597656 Z m 9.460938,38.3242184 c 2.225493,1.319787 2.773317,7.012367 -0.472657,7.570313 -1.235978,-2.729641 -1.434162,-5.411739 0.472657,-7.570313 z m -23.65625,8.990235 c 2.49601,0.967948 1.059367,4.437499 3.548828,5.441406 -2.459445,1.24504 -4.607464,-2.340525 -3.548828,-5.441406 z m 11.11914,0 c 1.601874,3.478361 7.116163,3.785916 9.226563,7.095703 1.458634,2.287414 2.023859,6.053571 1.18164,8.28125 -0.900085,2.379989 -4.192297,2.845773 -5.441406,4.966797 -7.178119,2.205802 -9.467519,-3.920922 -9.460937,-10.408203 0.99922,-0.0053 1.527399,0.457865 2.365234,0 0.825333,-2.947934 -0.641386,-7.596519 2.128906,-9.935547 z"
       transform="matrix(0.93749998,0,0,0.93749998,47.139826,-35.695707)"
       id="path22"
       inkscape:connector-curvature="0" />
    <path
       style="display:inline;fill:#000000;fill-opacity:1;fill-rule:evenodd;stroke:none;stroke-width:0.9000001;stroke-miterlimit:4;stroke-dasharray:none;stroke-opacity:1"
       d="m 126.6417,14.592631 c -0.0285,8.25e-4 -0.0588,0.0025 -0.091,0.0075 0.26505,4.922801 -2.2225,7.093101 -3.99225,9.980813 13.52115,7.170749 26.06026,24.044091 21.06972,44.578259 3.46649,-1.71815 5.38035,1.62928 5.32259,4.87968 2.77512,0.25596 3.60632,2.45625 4.87969,4.2137 1.58796,-5.27318 2.96513,-10.82647 2.66108,-17.520785 -1.01886,-22.434674 -13.51897,-37.901566 -29.49712,-45.909417 -0.0429,-0.151363 -0.15319,-0.235425 -0.35271,-0.2299 z"
       id="path933"
       inkscape:connector-curvature="0" />
    <path
       style="display:inline;fill:#000000;fill-opacity:1;fill-rule:evenodd;stroke:none;stroke-width:0.9000001;stroke-miterlimit:4;stroke-dasharray:none;stroke-opacity:1"
       d="m 100.57876,16.174631 c -0.002,0.04237 -0.0113,0.057 -0.0138,0.100625 -0.0674,1.481312 0.1797,3.349662 -0.40546,5.43975 a 2.5345181,2.5345181 0 0 1 -1.225656,1.540538 c -0.22693,0.124 -0.4711,0.219212 -0.71913,0.2907 0.18509,1.386887 0.50331,2.618109 0.94985,3.448279 0.70366,1.30821 1.208926,1.75301 2.789536,1.6879 0.26472,-0.0113 0.64452,-0.11538 0.98326,-0.18483 0.93431,-1.05725 2.01493,-1.62714 2.7694,-2.09657 0.96723,-0.601821 1.31676,-0.953516 1.39639,-1.164054 h -4.1e-4 c 0.32257,-0.853237 -0.0252,-4.171263 -0.87495,-5.503788 -0.47059,-0.738013 -1.74267,-1.480188 -3.50465,-2.36555 -0.66369,-0.333488 -1.40732,-0.730025 -2.14449,-1.193038 z"
       id="path937"
       inkscape:connector-curvature="0" />
  </g>
</svg>
