<?xml version="1.0" encoding="UTF-8" standalone="no"?>
<svg
   xmlns:dc="http://purl.org/dc/elements/1.1/"
   xmlns:cc="http://creativecommons.org/ns#"
   xmlns:rdf="http://www.w3.org/1999/02/22-rdf-syntax-ns#"
   xmlns:svg="http://www.w3.org/2000/svg"
   xmlns="http://www.w3.org/2000/svg"
   xmlns:sodipodi="http://sodipodi.sourceforge.net/DTD/sodipodi-0.dtd"
   xmlns:inkscape="http://www.inkscape.org/namespaces/inkscape"
   version="1.1"
   viewBox="0 0 112.50002 154.01853"
   id="svg2"
   width="31.750006mm"
   height="43.467453mm"
   sodipodi:docname="Inkscape-Plugin-Demo.SVG"
   inkscape:version="0.92.3 (2405546, 2018-03-11)">
  <metadata
     id="metadata6">
    <rdf:RDF>
      <cc:Work
         rdf:about="">
        <dc:format>image/svg+xml</dc:format>
        <dc:type
           rdf:resource="http://purl.org/dc/dcmitype/StillImage" />
        <dc:title></dc:title>
      </cc:Work>
    </rdf:RDF>
  </metadata>
  <defs
     id="defs4" />
  <sodipodi:namedview
     id="base"
     pagecolor="#ffffff"
     bordercolor="#666666"
     borderopacity="1.0"
     inkscape:pageopacity="0.0"
     inkscape:pageshadow="2"
     inkscape:document-units="mm"
     inkscape:current-layer="layer4"
     showgrid="false"
     showguides="true"
     inkscape:snap-bbox="true"
     inkscape:bbox-paths="true"
     inkscape:bbox-nodes="true"
     inkscape:snap-page="true"
     inkscape:snap-object-midpoints="true"
     inkscape:zoom="8"
     inkscape:cx="80.949383"
     inkscape:cy="113.88653"
     inkscape:window-width="1680"
     inkscape:window-height="1023"
     inkscape:window-x="1680"
     inkscape:window-y="0"
     inkscape:window-maximized="1"
     viewbox-x="0"
     fit-margin-left="0.1"
     fit-margin-top="0.1"
     fit-margin-bottom="0.1"
     fit-margin-right="0.1" />
  <g
     inkscape:label="base"
     inkscape:groupmode="layer"
     id="layer1"
     transform="translate(-47.139826,35.695707)"
     style="display:inline">
    <path
       style="display:inline;opacity:0.97000002;fill:#bfbfbf;fill-opacity:1;fill-rule:evenodd;stroke:none;stroke-width:3.77952766;stroke-miterlimit:4;stroke-dasharray:none;stroke-opacity:1"
       d="M 57.669922,1.234375 57.3125,2.8496094 c -0.149461,0.6718624 -0.07371,1.5401806 0.304688,2.15625 0.1552,0.2526837 0.244495,0.2497856 0.396484,0.3925781 -0.343552,0.6234763 -0.765906,1.1968524 -1.419922,1.96875 -0.802559,0.9472011 -1.804263,2.3988871 -1.691406,4.2851565 0.09432,1.57361 0.978574,2.597442 1.482422,3.255859 0.50385,0.658417 0.641875,0.916149 0.644531,1.148438 4.3e-5,0.0037 -0.602583,1.519826 -1.714844,2.855468 -1.112266,1.335644 -2.548416,2.690101 -3.5,3.460938 -1.64187,1.33003 -3.974381,2.807432 -6.230469,4.373047 -2.256085,1.565613 -4.454366,3.191291 -5.93164,5.205078 -1.513034,2.063032 -2.29833,4.58092 -2.210938,7.050781 0.05977,1.68902 0.612879,3.377157 1.646485,4.777344 -0.568614,0.43109 -1.015602,0.828978 -1.710938,1.339844 -1.259291,0.925205 -2.685358,2.147215 -3.412109,4.082031 -0.391595,1.04259 -0.59319,2.068211 -0.712891,3.082031 l -1.556641,0.923828 C 15.34437,62.909882 1.3543659,79.887282 1.4335938,104.51758 c 0.063819,19.92263 9.5259902,35.46286 21.7500002,45.45898 12.397954,10.13848 31.432819,16.43899 52.353515,11.00976 1.457473,-0.37823 2.842665,-0.93795 4.222657,-1.5039 3.400395,-1.39454 5.719701,-2.39224 8.445312,-3.86523 l 0.994141,-0.53711 c 0.780842,0.3443 1.740821,0.52193 2.722656,0.19726 0.992981,-0.32831 1.744498,-1.1556 2.068359,-1.98242 0.170006,-0.43404 0.07377,-0.84871 0.0918,-1.27539 0.577451,0.10347 1.162706,0.12349 1.716797,-0.0195 0.944587,-0.24389 1.910501,-0.90936 2.38086,-1.9707 0.26112,-0.58921 0.309878,-1.23788 0.242187,-1.89649 l 1.46875,-1.25781 c 4.449392,-3.80805 8.285022,-8.37098 10.902342,-14.13867 l 0.16797,-0.3711 1.67578,0.44532 0.58203,-1.64453 c 0.59874,-1.69002 0.90306,-2.76807 0.8241,-5.00916 l 0.46887,-0.41272 1.09961,-3.6543 c 1.71239,-5.68639 3.25814,-11.87377 2.91992,-19.32031 -1.11179,-24.480796 -14.8277,-41.602711 -32.277341,-50.439452 -0.06315,-0.05663 -0.06166,-0.138757 -0.132812,-0.1875 C 85.654019,51.822568 85.133595,51.741331 84.75,51.751953 h -0.002 l -0.441406,0.01172 C 83.810485,47.33816 82.076054,42.537276 80.130859,39.595703 79.22271,38.222527 77.99975,37.279864 77.046875,36.361328 76.09399,35.442792 75.527884,34.632076 75.447266,34.166016 c -0.116224,-0.672597 0.150119,-1.482361 0.679687,-2.712891 0.529568,-1.23053 1.292235,-2.816077 1.240235,-4.822266 -0.05952,-2.299112 -1.15792,-3.909741 -1.591797,-4.904297 -0.216896,-0.497276 -0.277797,-0.795163 -0.267579,-0.980468 0.01067,-0.185308 0.03904,-0.386733 0.460938,-0.878906 l 2.613281,-3.048829 -4.015625,-0.07031 c -1.840917,-0.03252 -3.494038,0.771992 -4.353515,1.988281 -0.859478,1.216289 -1.057231,2.523652 -1.210938,3.689453 -0.07467,0.56641 -0.145122,0.94676 -0.207031,1.441407 -0.08064,-0.120794 -0.167426,-0.260205 -0.244141,-0.378907 -0.763264,-1.181026 -1.295556,-2.206652 -1.359375,-3.09375 v -0.002 c -0.0848,-1.177201 0.09035,-2.171309 0.232422,-3.33789 0.142048,-1.166538 0.233019,-2.589605 -0.361328,-4.083985 -0.568128,-1.428161 -1.618944,-2.187111 -2.277344,-2.736328 -0.65841,-0.5492171 -0.900013,-0.8295778 -0.966797,-1.078125 -0.03765,-0.1402059 -0.0043,-0.5553184 0.16211,-1.2851562 0.166677,-0.729838 0.502612,-1.8127355 0.02734,-3.125 L 63.894531,4.4316406 63.679688,4.1757812 C 63.332252,3.7607231 62.907249,3.1628845 62.214844,2.578125 61.522438,1.9933655 60.502285,1.4789297 59.318359,1.3769531 Z"
       id="path9755"
       inkscape:connector-curvature="0"
       sodipodi:nodetypes="ccccccccccscccscccccsscccccccccccccccccccccccccsccccccscccccccccccccscc"
       transform="matrix(0.93749998,0,0,0.93749998,47.139826,-35.695707)" />
  </g>
  <g
     inkscape:groupmode="layer"
     id="layer2"
     inkscape:label="cutout"
     transform="translate(-47.139826,35.695707)"
     style="display:inline;opacity:0.97000002">
    <path
       style="display:inline;fill:#808080;fill-opacity:1;fill-rule:evenodd;stroke:none;stroke-width:0.9000001;stroke-miterlimit:4;stroke-dasharray:none;stroke-opacity:1"
       d="m 126.6417,14.592631 c -0.0285,8.25e-4 -0.0588,0.0025 -0.091,0.0075 0.26505,4.922801 -2.2225,7.093101 -3.99225,9.980813 13.52115,7.170749 26.06026,24.044091 21.06972,44.578259 3.46649,-1.71815 5.38035,1.62928 5.32259,4.87968 2.77512,0.25596 3.60632,2.45625 4.87969,4.2137 1.58796,-5.27318 2.96513,-10.82647 2.66108,-17.520785 -1.01886,-22.434674 -13.51897,-37.901566 -29.49712,-45.909417 -0.0429,-0.151363 -0.15319,-0.235425 -0.35271,-0.2299 z"
       id="path9960"
       inkscape:connector-curvature="0" />
    <path
       style="display:inline;fill:#808080;fill-opacity:1;fill-rule:evenodd;stroke:none;stroke-width:0.9000001;stroke-miterlimit:4;stroke-dasharray:none;stroke-opacity:1"
       d="m 102.59881,-32.639677 c -0.29613,1.331125 1.26006,0.808595 0.88623,2.217407 -0.88838,2.330639 -3.24386,3.231398 -3.10547,5.544433 0.0989,1.650128 1.97621,2.496364 1.99585,4.215088 0.0235,2.070864 -3.554803,5.707013 -5.544433,7.318726 -3.342181,2.707401 -8.815417,5.5507885 -11.088867,8.6499019 -2.351169,3.2058384 -2.483118,8.060743 0.664673,10.200806 -1.787051,2.0034244 -4.765012,2.8813772 -5.765991,5.5462641 -2.09754,5.584551 1.063537,10.52817 3.327026,14.859009 1.986421,3.80045 4.563443,8.529199 7.540283,9.75769 2.194301,0.9054 6.515221,1.049808 9.093019,1.109619 5.95458,0.137499 13.74701,-0.09444 17.52136,-3.327027 1.7416,-1.889948 2.64588,-5.556061 1.33118,-8.649901 1.93569,-3.205839 4.8298,-4.849662 5.10132,-8.871461 0.27647,-4.092764 -1.79311,-10.5380946 -3.77015,-13.5278308 -1.22763,-1.85624997 -4.26823,-3.5115778 -4.6582,-5.7659915 -0.4263,-2.4669627 1.84611,-4.549543 1.77429,-7.3205557 -0.0817,-3.156291 -3.21334,-4.825846 -0.88623,-7.540283 -5.27846,-0.09325 -2.09064,7.228672 -5.32287,8.8714589 -0.4914,-2.2324119 -3.13059,-4.3668939 -3.32703,-7.0971669 -0.1941,-2.693613 0.79926,-4.421075 0,-6.430664 -0.63624,-1.599401 -2.65717,-2.103673 -3.10547,-3.771973 -0.36592,-1.361313 0.65285,-2.800737 0.22156,-3.991699 -0.74121,-0.885463 -1.38442,-1.86685 -2.88208,-1.99585 z"
       id="path9958"
       inkscape:connector-curvature="0" />
    <path
       style="display:inline;fill:#808080;fill-opacity:1;fill-rule:evenodd;stroke:none;stroke-width:0.9000001;stroke-miterlimit:4;stroke-dasharray:none;stroke-opacity:1"
       d="m 77.757952,15.709568 c -14.9373,8.863976 -27.572919,24.151925 -27.500793,46.57458 0.05805,18.122015 8.625455,32.164305 19.738561,41.251992 11.206932,9.16451 28.421294,14.72974 47.4616,9.75855 4.37952,-10.97413 1.8117,-27.652567 -5.76631,-33.267897 -14.977746,1.2329 -29.806818,-2.95949 -38.368217,-11.53262 -1.363375,-1.36513 -2.642113,-2.95458 -3.896415,-4.753647 -0.784896,-1.125891 -1.150586,-2.1894 -1.648438,-3.230841 -1.60028,-3.345686 -2.345706,-8.142256 -1.995922,-11.75448 1.08249,-11.187282 8.246002,-17.902782 15.746314,-22.843773 -2.267599,-2.389563 -2.537779,-6.776713 -3.77038,-10.201864 z"
       id="path9950"
       inkscape:connector-curvature="0" />
    <path
       style="display:inline;fill:#808080;fill-opacity:1;fill-rule:evenodd;stroke:none;stroke-width:0.9000001;stroke-miterlimit:4;stroke-dasharray:none;stroke-opacity:1"
       d="m 120.95029,31.978523 c -0.27927,0.005 -0.55732,0.0505 -0.83107,0.142931 -1.11181,1.171919 0.41292,1.80997 0.22145,3.32668 -4.58943,2.3148 -11.87817,3.23275 -18.62966,3.10521 -5.501866,-0.103751 -11.864267,-0.534251 -15.081547,-3.32667 -0.10737,-1.290371 1.06873,-1.29744 0.66558,-2.883351 -3.26799,-1.58093 -6.91918,3.086571 -6.43188,6.210021 0.129009,0.82681 1.405909,1.6865 1.774459,2.66109 0.109631,0.29027 0.4008,1.58605 0.443321,2.21819 0.3366,4.996681 -0.304631,10.896125 0,14.859283 3.17738,2.377256 7.87497,5.188434 12.6415,6.431876 10.744847,2.8027 22.633527,-1.600845 28.166767,-6.875194 0.75996,-1.14669 -0.13917,-2.90918 -0.22186,-4.65781 -0.0636,-1.34813 0.35791,-3.36667 0.44412,-5.322594 0.0765,-1.74219 -0.31491,-3.432441 -0.22226,-4.657431 0.1897,-2.503321 2.03394,-3.4385 2.21778,-4.879271 0.33346,-2.60928 -2.45722,-6.39883 -5.1567,-6.35296 z"
       id="path9948"
       inkscape:connector-curvature="0" />
    <path
       style="display:inline;fill:#808080;fill-opacity:1;fill-rule:evenodd;stroke:none;stroke-width:0.9000001;stroke-miterlimit:4;stroke-dasharray:none;stroke-opacity:1"
       d="m 140.09776,48.747155 c -4.19355,-0.058 -2.97705,7.285454 -1.12701,9.544752 1.63869,-1.022378 2.14265,-3.180078 3.54852,-4.435559 -0.56851,-1.870899 -0.54478,-4.334424 -2.21777,-5.101143 -0.0694,-0.005 -0.13718,-0.007 -0.20374,-0.007 z"
       id="path9946"
       inkscape:connector-curvature="0" />
    <path
       style="display:inline;fill:#808080;fill-opacity:1;fill-rule:evenodd;stroke:none;stroke-width:0.9000001;stroke-miterlimit:4;stroke-dasharray:none;stroke-opacity:1"
       d="m 133.20001,54.706739 c -0.17166,-0.005 -0.3422,0.002 -0.43969,0.0366 -2.73407,0.97402 0.88432,3.10835 1.33115,3.77039 0.7072,1.047009 0.7688,3.164156 1.77447,4.657434 1.23612,1.83571 2.91405,2.57051 4.43516,3.54892 -1.76154,-3.46237 -2.39921,-11.374504 -6.65294,-11.976744 -0.10337,-0.0145 -0.27647,-0.0316 -0.44815,-0.0366 z"
       id="path9944"
       inkscape:connector-curvature="0" />
    <path
       style="display:inline;fill:#808080;fill-opacity:1;fill-rule:evenodd;stroke:none;stroke-width:0.9000001;stroke-miterlimit:4;stroke-dasharray:none;stroke-opacity:1"
       d="m 142.51927,55.852259 c -1.57007,2.1902 -3.9273,8.27852 -0.22185,9.980824 0.73798,-2.74727 1.56765,-6.550988 0.88743,-9.980824 z"
       id="path9942"
       inkscape:connector-curvature="0" />
    <path
       style="display:inline;fill:#808080;fill-opacity:1;fill-rule:evenodd;stroke:none;stroke-width:0.9000001;stroke-miterlimit:4;stroke-dasharray:none;stroke-opacity:1"
       d="m 135.22734,65.706653 c -0.36449,0.006 -0.74125,0.10725 -1.13587,0.34789 -0.34303,0.3225 -0.19517,1.13559 -0.22186,1.77446 -6.32986,1.66976 -4.87685,11.6243 0.88744,12.86336 1.52845,-1.49796 4.07357,-1.39622 6.43148,-0.66557 0.828,-0.65003 1.30847,-1.6481 1.77407,-2.66109 -2.30543,-1.6132 -4.0054,-4.84541 -1.1089,-7.09746 -0.95611,-1.55719 -2.80595,-2.22071 -4.87888,-2.6611 v -1.33075 c -0.56641,-0.32269 -1.14,-0.57927 -1.74748,-0.56974 z"
       id="path9940"
       inkscape:connector-curvature="0" />
    <path
       style="display:inline;fill:#808080;fill-opacity:1;fill-rule:evenodd;stroke:none;stroke-width:0.9000001;stroke-miterlimit:4;stroke-dasharray:none;stroke-opacity:1"
       d="m 93.948374,66.498243 c -0.185001,3.8075 0.545749,6.69924 0.44373,10.42374 4.32907,2.36758 13.232756,2.47607 18.186346,0.66557 -0.0724,-4.02062 0.44656,-8.02421 0.66557,-11.08931 -4.82546,2.8892 -14.509466,2.85899 -19.295646,0 z"
       id="path9938"
       inkscape:connector-curvature="0" />
    <path
       style="display:inline;fill:#808080;fill-opacity:1;fill-rule:evenodd;stroke:none;stroke-width:0.9000001;stroke-miterlimit:4;stroke-dasharray:none;stroke-opacity:1"
       d="m 145.3511,70.419643 c -1.59646,-0.0509 -2.96276,1.70716 -3.4974,3.17567 1.70114,1.40413 2.23131,3.97827 5.10115,4.21369 0.0817,-2.33062 0.53782,-4.92805 -0.22187,-6.87519 -0.46987,-0.3439 -0.93488,-0.49993 -1.38188,-0.51417 z"
       id="path9936"
       inkscape:connector-curvature="0" />
    <path
       style="display:inline;fill:#808080;fill-opacity:1;fill-rule:evenodd;stroke:none;stroke-width:0.9000001;stroke-miterlimit:4;stroke-dasharray:none;stroke-opacity:1"
       d="m 123.25786,72.144983 c -1.79614,0.0304 -3.53046,1.73165 -3.13904,4.11181 2.14445,1.92985 5.24138,-0.31923 4.87928,-3.54851 -0.53598,-0.39794 -1.14154,-0.57343 -1.74024,-0.5633 z"
       id="path9934"
       inkscape:connector-curvature="0" />
    <path
       style="display:inline;fill:#808080;fill-opacity:1;fill-rule:evenodd;stroke:none;stroke-width:0.9000001;stroke-miterlimit:4;stroke-dasharray:none;stroke-opacity:1"
       d="m 127.86011,74.599113 c -2.00724,4.2e-4 -2.13752,3.09959 -3.52719,4.09734 0.49463,1.57535 2.39175,1.74788 3.10482,3.10479 1.16546,-0.31313 1.4153,-1.54191 2.88335,-1.5522 -0.0856,-2.35409 -1.24202,-3.63729 -1.77447,-5.54484 -0.25128,-0.072 -0.47886,-0.10512 -0.68651,-0.10512 z"
       id="path9932"
       inkscape:connector-curvature="0" />
    <path
       style="display:inline;fill:#808080;fill-opacity:1;fill-rule:evenodd;stroke:none;stroke-width:0.9000001;stroke-miterlimit:4;stroke-dasharray:none;stroke-opacity:1"
       d="m 149.17303,76.034553 c -0.27855,1.58914 -0.62827,3.79033 -3.10523,3.77038 -1.02414,-0.0113 -0.80641,-1.26329 -1.99591,-1.10848 -2.23829,4.87325 3.7367,6.96796 7.54037,7.98449 1.11915,-3.15893 1.33012,-10.2582 -2.43923,-10.64639 z"
       id="path9930"
       inkscape:connector-curvature="0" />
    <path
       style="display:inline;fill:#808080;fill-opacity:1;fill-rule:evenodd;stroke:none;stroke-width:0.9000001;stroke-miterlimit:4;stroke-dasharray:none;stroke-opacity:1"
       d="m 117.3015,77.707543 c -1.08565,-0.0129 -2.16292,0.29281 -2.94859,0.98891 0.51251,1.11325 1.24515,2.00708 2.21739,2.66149 1.11856,-1.02561 3.83979,-0.44863 4.65781,-1.77446 -0.73551,-1.1575 -2.33987,-1.85713 -3.92661,-1.87594 z"
       id="path9928"
       inkscape:connector-curvature="0" />
    <path
       style="display:inline;fill:#808080;fill-opacity:1;fill-rule:evenodd;stroke:none;stroke-width:0.9000001;stroke-miterlimit:4;stroke-dasharray:none;stroke-opacity:1"
       d="m 122.01287,80.634793 c -1.96807,0.0203 -3.78461,1.21894 -3.88997,2.71907 -0.0466,0.66117 0.96894,1.89869 1.33075,2.88295 1.03675,2.82145 0.70986,5.47058 2.21777,6.21003 2.00754,-0.42983 2.91152,-0.14406 3.99225,-0.88704 4.00128,-2.75079 0.94487,-9.56672 -1.99592,-10.64597 -0.54055,-0.19832 -1.10381,-0.28473 -1.65488,-0.27904 z"
       id="path9926"
       inkscape:connector-curvature="0" />
    <path
       style="display:inline;fill:#808080;fill-opacity:1;fill-rule:evenodd;stroke:none;stroke-width:0.9000001;stroke-miterlimit:4;stroke-dasharray:none;stroke-opacity:1"
       d="m 137.91581,81.165083 c -1.2032,-0.006 -2.59114,0.91656 -2.49359,2.18878 1.19537,0.83189 3.35178,0.29199 3.99184,-1.33075 -0.28855,-0.59636 -0.868,-0.85475 -1.49825,-0.85803 z"
       id="path9924"
       inkscape:connector-curvature="0" />
    <path
       style="display:inline;fill:#808080;fill-opacity:1;fill-rule:evenodd;stroke:none;stroke-width:0.9000001;stroke-miterlimit:4;stroke-dasharray:none;stroke-opacity:1"
       d="m 131.98966,81.767843 c -1.61655,-0.0264 -2.67301,1.28457 -3.6645,2.02973 0.64445,1.35165 1.08114,2.91054 0.88704,5.10074 2.31627,-0.32017 3.18926,0.80309 4.2137,1.77447 2.00695,-0.7025 3.94335,-3.44438 1.99592,-5.54486 -0.62832,-0.38234 -1.76928,-0.49687 -1.99592,-0.66517 0.0686,-1.20739 0.32477,-1.61311 -0.22145,-2.43964 -0.43876,-0.1719 -0.84174,-0.24918 -1.21479,-0.25527 z"
       id="path9922"
       inkscape:connector-curvature="0" />
    <path
       style="display:inline;fill:#808080;fill-opacity:1;fill-rule:evenodd;stroke:none;stroke-width:0.9000001;stroke-miterlimit:4;stroke-dasharray:none;stroke-opacity:1"
       d="m 140.96668,81.801243 c -0.14866,1.7847 -1.07794,3.10815 -3.10482,3.54854 0.7154,3.2158 -0.6529,5.70504 -3.10521,6.43188 0.17739,1.52287 1.83817,1.5627 1.5526,3.54853 2.56021,0.3231 3.59994,2.1667 3.32667,5.322987 4.02358,-3.443617 7.42792,-7.505947 9.75856,-12.641907 -3.46413,-1.19331 -6.48768,-2.82739 -7.76222,-6.21003 z"
       id="path9920"
       inkscape:connector-curvature="0" />
    <path
       style="display:inline;fill:#808080;fill-opacity:1;fill-rule:evenodd;stroke:none;stroke-width:0.9000001;stroke-miterlimit:4;stroke-dasharray:none;stroke-opacity:1"
       d="m 129.83711,90.598283 c -1.39544,0.0381 -2.08697,1.54526 -1.06862,2.73558 1.13966,1.3323 3.80818,0.30373 2.66148,-2.21778 -0.58433,-0.37991 -1.12772,-0.53049 -1.59286,-0.5178 z"
       id="path9918"
       inkscape:connector-curvature="0" />
    <path
       style="display:inline;fill:#808080;fill-opacity:1;fill-rule:evenodd;stroke:none;stroke-width:0.9000001;stroke-miterlimit:4;stroke-dasharray:none;stroke-opacity:1"
       d="m 125.68099,93.119263 c -0.63588,0.0162 -1.2776,0.2521 -1.56993,0.65832 -0.68931,3.05513 3.81329,3.13781 3.10521,0 -0.26915,-0.47146 -0.89941,-0.67464 -1.53528,-0.65832 z"
       id="path9916"
       inkscape:connector-curvature="0" />
    <path
       style="display:inline;fill:#808080;fill-opacity:1;fill-rule:evenodd;stroke:none;stroke-width:0.9000001;stroke-miterlimit:4;stroke-dasharray:none;stroke-opacity:1"
       d="m 133.19599,94.034473 c -0.38012,-9.4e-4 -0.8223,0.1195 -1.32229,0.40869 -0.5996,1.71022 0.007,3.06082 1.33075,3.10481 2.28337,0.0757 2.04417,-3.50466 -0.009,-3.5135 z"
       id="path9914"
       inkscape:connector-curvature="0" />
    <path
       style="display:inline;fill:#808080;fill-opacity:1;fill-rule:evenodd;stroke:none;stroke-width:0.9000001;stroke-miterlimit:4;stroke-dasharray:none;stroke-opacity:1"
       d="m 128.77572,95.359183 c -2.0407,0.1125 -2.18383,4.31608 0.43648,3.74139 1.07076,-0.23485 1.62765,-2.07236 0.88702,-3.32666 -0.50255,-0.31607 -0.94558,-0.43558 -1.3235,-0.41473 z"
       id="path9912"
       inkscape:connector-curvature="0" />
    <path
       style="display:inline;fill:#808080;fill-opacity:1;fill-rule:evenodd;stroke:none;stroke-width:0.9000001;stroke-miterlimit:4;stroke-dasharray:none;stroke-opacity:1"
       d="m 122.337,95.995363 c -0.41106,0.47615 -0.15013,1.62455 -0.22226,2.43963 0.7846,0.27678 2.74946,0.58385 2.6615,-0.66517 -1.18745,-0.21668 -1.14124,-1.66774 -2.43924,-1.77446 z"
       id="path9910"
       inkscape:connector-curvature="0" />
    <path
       style="display:inline;fill:#808080;fill-opacity:1;fill-rule:evenodd;stroke:none;stroke-width:0.9000001;stroke-miterlimit:4;stroke-dasharray:none;stroke-opacity:1"
       d="m 136.72397,97.343423 c -0.91293,-0.0505 -1.9562,0.95635 -1.52361,2.20087 0.33103,0.952297 1.7992,1.217147 2.6615,0.22145 0.20358,-1.70425 -0.42782,-2.38302 -1.13789,-2.42232 z"
       id="path9908"
       inkscape:connector-curvature="0" />
    <path
       style="display:inline;fill:#808080;fill-opacity:1;fill-rule:evenodd;stroke:none;stroke-width:0.9000001;stroke-miterlimit:4;stroke-dasharray:none;stroke-opacity:1"
       d="m 132.51792,99.092123 c -1.16943,0.0302 -2.18665,1.044367 -1.53126,2.448087 1.22353,1.56363 4.20616,0.25057 2.88295,-1.995917 -0.41305,-0.32498 -0.89407,-0.46402 -1.35169,-0.45217 z"
       id="path9906"
       inkscape:connector-curvature="0" />
    <path
       style="display:inline;fill:#808080;fill-opacity:1;fill-rule:evenodd;stroke:none;stroke-width:0.9000001;stroke-miterlimit:4;stroke-dasharray:none;stroke-opacity:1"
       d="m 124.77624,99.987613 c -0.54124,0.419557 -1.44559,0.476257 -2.43924,0.443707 -1.22118,3.89807 4.27965,1.90421 2.43924,-0.443707 z"
       id="path9904"
       inkscape:connector-curvature="0" />
    <path
       style="display:inline;fill:#808080;fill-opacity:1;fill-rule:evenodd;stroke:none;stroke-width:0.9000001;stroke-miterlimit:4;stroke-dasharray:none;stroke-opacity:1"
       d="m 128.58125,100.85369 c -0.9103,-0.005 -1.52233,0.28914 -2.03055,0.68652 -0.48554,3.91097 4.85501,1.50937 2.43964,-0.66558 -0.14279,-0.0135 -0.27905,-0.0203 -0.40909,-0.021 z"
       id="path9902"
       inkscape:connector-curvature="0" />
    <path
       style="display:inline;fill:#808080;fill-opacity:1;fill-rule:evenodd;stroke:none;stroke-width:0.9000001;stroke-miterlimit:4;stroke-dasharray:none;stroke-opacity:1"
       d="m 136.07692,101.95333 c -1.03313,-0.009 -2.02496,0.6839 -1.98545,1.80466 0.64827,2.28343 4.68829,1.70913 3.32668,-1.33075 -0.39363,-0.32032 -0.87161,-0.46971 -1.34123,-0.47391 z"
       id="path9900"
       inkscape:connector-curvature="0" />
    <path
       style="display:inline;fill:#808080;fill-opacity:1;fill-rule:evenodd;stroke:none;stroke-width:0.9000001;stroke-miterlimit:4;stroke-dasharray:none;stroke-opacity:1"
       d="m 124.9981,103.97944 c -0.60429,0.69109 -2.17889,0.43073 -3.10481,0.22227 0.36708,3.1038 -0.52385,6.12786 -0.66518,7.98408 2.65374,-1.1165 5.3145,-2.22591 7.76183,-3.54852 -0.23514,-1.09539 -1.12882,-1.5325 -0.88663,-3.10521 -1.47097,-0.0813 -2.29041,-0.81463 -3.10521,-1.55262 z"
       id="path9898"
       inkscape:connector-curvature="0" />
    <path
       style="display:inline;fill:#808080;fill-opacity:1;fill-rule:evenodd;stroke:none;stroke-width:0.9000001;stroke-miterlimit:4;stroke-dasharray:none;stroke-opacity:1"
       d="m 131.93249,104.34666 c -0.3486,-0.0186 -0.73994,0.0687 -1.16769,0.29837 -2.17201,1.16604 0.20566,4.14049 1.99592,3.54851 1.68422,-0.55686 1.05417,-3.74642 -0.82823,-3.84688 z"
       id="path937"
       inkscape:connector-curvature="0" />
  </g>
  <g
     inkscape:groupmode="layer"
     id="layer3"
     inkscape:label="fireraised">
    <path
       transform="translate(-47.139826,35.695707)"
       style="display:inline;opacity:0.97000002;fill:#ff9900;fill-opacity:1;fill-rule:evenodd;stroke:none;stroke-width:0.9000001;stroke-miterlimit:4;stroke-dasharray:none;stroke-opacity:1"
       d="m 111.46844,3.2892772 c 2.0864,1.2373003 2.59998,6.5740939 -0.44312,7.0971678 -1.15873,-2.5590379 -1.34452,-5.0735047 0.44312,-7.0971678 z"
       id="path9956"
       inkscape:connector-curvature="0" />
    <path
       transform="translate(-47.139826,35.695707)"
       style="display:inline;opacity:0.97000002;fill:#ff9900;fill-opacity:1;fill-rule:evenodd;stroke:none;stroke-width:0.9000001;stroke-miterlimit:4;stroke-dasharray:none;stroke-opacity:1"
       d="m 89.290704,11.717622 c 2.34001,0.907452 0.993157,4.160156 3.327027,5.101318 -2.30573,1.167225 -4.319498,-2.194242 -3.327027,-5.101318 z"
       id="path9954"
       inkscape:connector-curvature="0" />
    <path
       transform="translate(-47.139826,35.695707)"
       style="display:inline;opacity:0.97000002;fill:#ff9900;fill-opacity:1;fill-rule:evenodd;stroke:none;stroke-width:0.9000001;stroke-miterlimit:4;stroke-dasharray:none;stroke-opacity:1"
       d="m 99.714898,11.717622 c 1.501752,3.260964 6.671402,3.549296 8.649902,6.652222 1.36747,2.14445 1.89737,5.675222 1.10779,7.763671 -0.84383,2.23124 -3.93028,2.667913 -5.10132,4.656373 -6.729486,2.067939 -8.875799,-3.675865 -8.869628,-9.757691 0.936769,-0.005 1.431936,0.429249 2.217407,0 0.773749,-2.763688 -0.6013,-7.121736 1.995849,-9.314575 z"
       id="path9952"
       inkscape:connector-curvature="0" />
  </g>
  <g
     inkscape:groupmode="layer"
     id="layer4"
     inkscape:label="firecut">
    <path
       transform="translate(-47.139826,35.695707)"
       style="display:inline;opacity:0.97000002;fill:#bfbfbf;fill-opacity:1;fill-rule:evenodd;stroke:none;stroke-width:0.9000001;stroke-miterlimit:4;stroke-dasharray:none;stroke-opacity:1"
       d="m 100.57876,16.174631 c -0.002,0.04237 -0.0113,0.057 -0.0138,0.100625 -0.0674,1.481312 0.1797,3.349662 -0.40546,5.43975 a 2.5345181,2.5345181 0 0 1 -1.225656,1.540538 c -0.22693,0.124 -0.4711,0.219212 -0.71913,0.2907 0.18509,1.386887 0.50331,2.618109 0.94985,3.448279 0.70366,1.30821 1.208926,1.75301 2.789536,1.6879 0.26472,-0.0113 0.64452,-0.11538 0.98326,-0.18483 0.93431,-1.05725 2.01493,-1.62714 2.7694,-2.09657 0.96723,-0.601821 1.31676,-0.953516 1.39639,-1.164054 h -4.1e-4 c 0.32257,-0.853237 -0.0252,-4.171263 -0.87495,-5.503788 -0.47059,-0.738013 -1.74267,-1.480188 -3.50465,-2.36555 -0.66369,-0.333488 -1.40732,-0.730025 -2.14449,-1.193038 z"
       id="path9962"
       inkscape:connector-curvature="0" />
  </g>
</svg>
