<?xml version="1.0" encoding="UTF-8" standalone="no"?>
<svg
   xmlns:dc="http://purl.org/dc/elements/1.1/"
   xmlns:cc="http://creativecommons.org/ns#"
   xmlns:rdf="http://www.w3.org/1999/02/22-rdf-syntax-ns#"
   xmlns:svg="http://www.w3.org/2000/svg"
   xmlns="http://www.w3.org/2000/svg"
   xmlns:sodipodi="http://sodipodi.sourceforge.net/DTD/sodipodi-0.dtd"
   xmlns:inkscape="http://www.inkscape.org/namespaces/inkscape"
   version="1.1"
   viewBox="0.0 0.0 100.0 100.0"
   id="svg2"
   width="28.222222912098783mm"
   height="28.222222912098783mm"
   sodipodi:docname="Inkscape-Plugin-Demo.SVG"
   inkscape:version="0.92.3 (2405546, 2018-03-11)">
  <metadata
     id="metadata6">
    <rdf:RDF>
      <cc:Work
         rdf:about="">
        <dc:format>image/svg+xml</dc:format>
        <dc:type
           rdf:resource="http://purl.org/dc/dcmitype/StillImage" />
      </cc:Work>
    </rdf:RDF>
  </metadata>
  <defs
     id="defs4" />
  <sodipodi:namedview
     id="base"
     pagecolor="#ffffff"
     bordercolor="#666666"
     borderopacity="1.0"
     inkscape:pageopacity="0.0"
     inkscape:pageshadow="2"
     inkscape:document-units="mm"
     inkscape:current-layer="layer1"
     showgrid="false"
     showguides="false"
     inkscape:snap-bbox="true"
     inkscape:bbox-paths="true"
     inkscape:bbox-nodes="true"
     inkscape:snap-page="true"
     inkscape:snap-object-midpoints="true"
     inkscape:zoom="2.2124999"
     inkscape:cx="37.944908"
     inkscape:cy="50.621471"
     inkscape:window-width="1108"
     inkscape:window-height="1007"
     inkscape:window-x="120"
     inkscape:window-y="0"
     inkscape:window-maximized="0" />
  <g
     inkscape:groupmode="layer"
     id="layer4"
     inkscape:label="Slice 4"
     style="display:inline">
    <rect
       style="opacity:1;fill:#005c94;fill-opacity:1;stroke:none;stroke-width:8.85826778;stroke-linecap:square;stroke-linejoin:miter;stroke-miterlimit:4;stroke-dasharray:none;stroke-dashoffset:0;stroke-opacity:1;paint-order:normal"
       id="rect849"
       width="100"
       height="100"
       x="57.627117"
       y="0" />
  </g>
  <g
     inkscape:groupmode="layer"
     id="layer3"
     inkscape:label="Slice 3">
    <path
       style="opacity:1;fill:#ff4141;fill-opacity:1;stroke:none;stroke-width:8.85826778;stroke-linecap:square;stroke-linejoin:miter;stroke-miterlimit:4;stroke-dasharray:none;stroke-dashoffset:0;stroke-opacity:1;paint-order:normal"
       d="M -64.829898,0 V 99.999389 H 35.169491 V 0 Z m 47.235716,31.051024 c 2.439731,0.204262 4.918962,9.28577 7.117308,10.405883 2.269262,1.156247 11.5769082,-2.432225 12.7331552,-0.162963 1.156245,2.269261 -7.2187732,7.690802 -7.6171882,10.206298 -0.398416,2.515495 5.89147219,10.258429 4.090576,12.059326 -1.800896,1.800896 -9.54383,-4.488992 -12.059325,-4.090576 -2.515496,0.398415 -7.937037,8.773433 -10.206299,7.617187 -2.269262,-1.156247 1.319211,-10.463893 0.162964,-12.733154 -1.156247,-2.269261 -10.795143,-4.83802 -10.396728,-7.353516 0.398415,-2.515495 10.359138,-1.9784 12.160033,-3.779296 1.800896,-1.800896 1.263802,-11.761618 3.779297,-12.160034 0.07861,-0.01245 0.157505,-0.01574 0.236207,-0.0092 z"
       id="rect844"
       inkscape:connector-curvature="0" />
  </g>
  <g
     inkscape:groupmode="layer"
     id="layer2"
     inkscape:label="Slice 2">
    <path
       style="opacity:1;fill:#dc0000;fill-opacity:1;stroke:none;stroke-width:8.85826778;stroke-linecap:square;stroke-linejoin:miter;stroke-miterlimit:4;stroke-dasharray:none;stroke-dashoffset:0;stroke-opacity:1;paint-order:normal"
       d="m 57.203389,-113.98305 v 99.99939 h 99.999391 v -99.99939 z m 46.464841,18.099975 c 4.23663,-0.469567 7.77721,15.846814 11.48071,17.957153 3.70351,2.110338 19.54489,-3.1609 21.30066,0.723266 1.75578,3.884167 -12.66889,12.2923 -13.53149,16.466674 -0.86261,4.174375 9.04749,17.612063 5.89599,20.482177 -3.15149,2.870114 -15.60651,-8.249717 -19.84313,-7.780151 -4.23663,0.469568 -13.953358,14.046984 -17.656864,11.936645 -3.703507,-2.110338 3.022864,-17.390858 1.267089,-21.275023 -1.755774,-3.884166 -17.671686,-8.930484 -16.809081,-13.104858 0.862604,-4.174374 17.475332,-2.50037 20.62683,-5.370484 3.151498,-2.870113 3.032662,-19.565832 7.269286,-20.035399 z"
       id="rect839"
       inkscape:connector-curvature="0" />
  </g>
  <g
     inkscape:label="Slice 1"
     inkscape:groupmode="layer"
     id="layer1">
    <path
       style="opacity:1;fill:#ffc022;fill-opacity:1;stroke:none;stroke-width:9.44881916;stroke-linecap:square;stroke-linejoin:miter;stroke-miterlimit:4;stroke-dasharray:none;stroke-dashoffset:0;stroke-opacity:1;paint-order:normal"
       d="m -21.191406,-117.47852 c -6.298183,0.65336 -6.29651,25.454994 -11.007813,29.685551 -4.711301,4.230557 -29.368495,1.567939 -30.693359,7.759766 -1.324864,6.191827 22.26245,13.854549 24.830078,19.642578 2.567626,5.788029 -7.582887,28.416443 -2.103516,31.589844 5.479372,3.173399 20.055332,-16.891563 26.353516,-17.544922 6.2981816,-0.653359 24.68323,15.992276 29.394531,11.761719 4.711303,-4.230557 -9.8678325,-24.294501 -8.5429685,-30.486328 1.324865,-6.191826 22.8371585,-18.532284 20.2695315,-24.320313 -2.567627,-5.788029 -26.1553948,1.87848 -31.6347659,-1.294922 -5.479371,-3.173399 -10.5670521,-27.446333 -16.8652341,-26.792973 z m -48.414063,-5.9121 H 37.060547 V -16.724609 H -69.605469 Z"
       transform="scale(0.93749996)"
       id="path853" />
  </g>
</svg>
